<?xml version="1.0" encoding="UTF-8"?>
<svg id="Capa_1" xmlns="http://www.w3.org/2000/svg" version="1.1" viewBox="0 0 1080 1080">
  <!-- Generator: Adobe Illustrator 29.5.1, SVG Export Plug-In . SVG Version: 2.1.0 Build 141)  -->
  <path d="M1037.01,317.83c5.49,5.55,10.16,18.3,8.38,26.21-32.02,88.64-52.05,185.28-84.31,273.34-15.9,43.4-47.74,71.24-94.97,75.68l-448.84.15c-45.75,6.41-59.67,65.72-20.21,90.87,9.91,6.32,33.15,9.21,43.95,6.01,3.66-1.09,7.86-7.92,11.77-10.58,42.44-28.89,88.97-26.47,125.81,9.95l202.07,1.01c85.03-88.24,220.35,29.51,142.28,121.96-57.21,67.74-166.28,21.59-163.56-65.05h-156.45c-.24,128.46-185.08,129.18-184.85,0-101.58-4.87-138.41-136.85-52.66-193.83,7.57-5.03,23.89-7.67,21.77-17.89l-107.04-441.27c-2.41-3.54-64.02.85-75.46-2.14-28.93-7.55-26.44-52.18,5.09-55.98,18.82-2.27,72.08-1.61,88.98,4.57,15.14,5.53,27.93,18.07,34.04,33l32.83,133.76,2.92,3.17,659.08,1.19c2.79,1.93,7.12,3.56,9.39,5.85ZM397.75,443.1h133.07l3.05-3.05v-71.11l-3.05-3.05h-149.32l16.25,77.2ZM661.85,365.9h-98.53l-3.05,3.05v74.15h101.58v-77.2ZM791.88,365.9h-101.58v77.2h101.58v-77.2ZM978.79,365.9h-158.47v77.2h136.12l22.35-77.2ZM533.86,471.54h-127.99l14.22,60.95h113.77v-60.95ZM661.85,471.54h-101.58v60.95h101.58v-60.95ZM791.88,471.54h-101.58v60.95h101.58v-60.95ZM946.28,471.54h-125.96v60.95h107.68l18.28-60.95ZM533.86,560.93h-107.68l18.28,75.17h89.39v-75.17ZM661.85,560.93h-101.58v75.17h101.58v-75.17ZM791.88,560.93h-101.58v75.17h101.58v-75.17ZM919.87,560.93h-99.55v75.17h49.77c1.58,0,16.79-7.58,19.17-9.28,20.66-14.75,20.46-44.67,30.61-65.89ZM502.85,815.37c-45.39,7.62-36.61,79.65,11.49,74.55,49.19-5.21,42.34-83.59-11.49-74.55ZM844.17,815.37c-37.84,6.49-39.71,67.43,2.03,74.19,56.59,9.16,58.82-84.63-2.03-74.19Z"/>
  <path d="M299.58,472.18c10.29,11.26,1.47,26.45-12.51,27.85-52.86-4.44-114.96,5.76-166.68,0-22.22-2.47-23.25-30.15-2.03-32.6,52.73-6.1,116.82,4.72,170.78-.04,3.4.34,8.2,2.34,10.44,4.79Z"/>
  <path d="M38.72,386.78c2.24-2.25,9.23-4.31,12.59-4.69,41.03-4.57,90.21,3.55,132.14.01,19.48,1.09,20.74,29.48,1.87,32.43-42.87-3.5-94.21,5.09-136.04.16-13.9-1.64-19.9-18.54-10.57-27.91Z"/>
  <path d="M267.08,301.53c10.82,9.92,3.47,26.21-10.49,27.84-38.78,4.52-86.16-3.36-125.88-.16-18.43-2.88-18.88-29.89,3.9-32.44,25.84-2.9,94.11-2.89,119.95,0,3.75.42,9.8,2.28,12.52,4.77Z"/>
</svg>