<?xml version="1.0" encoding="UTF-8"?>
<svg id="Capa_1" xmlns="http://www.w3.org/2000/svg" version="1.1" viewBox="0 0 1080 1080">
  <!-- Generator: Adobe Illustrator 29.5.1, SVG Export Plug-In . SVG Version: 2.1.0 Build 141)  -->
  <path d="M9.45,746.03c5.23-19.36,17.25-33.3,28.65-49.13-8.42-37.61-33.62-104.68,18.87-119.85,6.67-1.93,15.35,1.51,18.36-6.5l.96-129.56c7.01-34.98,41.01-56.01,75.46-43.4,49.02,17.95,33.59,72.82,35.79,113.38,1.42,26.29,7.09,54.2,13.53,79.66l74.79-33.06c-8.87-37.3-5.64-72.16,11.49-106.47,2.69-5.39,20.07-33.21,23.8-34.35,5.15-1.58,20.93,16.23,23.63,21.63-22.83,29.85-39.22,69.36-25.94,106.73,79.04-27.95,160.97-53.71,244.7-63.99,49.44-6.08,104.26-9.81,150.91,10.09,5.76-1.13.74-19.99,1-25.94.83-19.25,11.49-34.89,26.34-46.22,87.34-33.55,173.51-86.12,260.32-118.81,33.19-12.5,62.07-2.28,74.31,32.1,18.3,51.37-28.26,66.16-63.87,84-76.36,38.25-154.31,74.76-231.91,109.91-13.49,1.98-26.12-2.74-38.14-8.1,67.02,216.32-119.9,404.29-321.07,442.4-161.88,30.66-345.43-29.77-402-195.86v-18.65ZM821.59,466.34l205.78-99.79c20.1-10.93,3.88-45.24-17.32-38.05l-207.11,94.36,14.89,25.48,3.76,18ZM289.12,754.35c-92.38-39.15-129.46-147.66-134.63-241.41-1-18.13,3.49-57.13-.94-71.57-6.28-20.44-40.79-18.78-44.52,5.43-5.49,35.64,3.31,84.69-.05,122.18-1.65,18.45-12.32,32.55-30.01,38.36-7.71,2.53-20.44.28-21.48,9.68,2.44,66.42,33.28,150.83,108.96,159.51,26.29,3.02,88.52-10.22,115.27-18.24,2.35-.71,7.7-.77,7.41-3.94ZM761.51,493.26c62.08-11.62,1.06-86.19-22.82-27.97,7.05.6,8.67-5.68,17.59-5.3,14.42.61,20.57,17.35,11.53,28.21-2.09,2.51-6.52,1.83-6.29,5.06ZM670.36,580.29c23.53-21.57,53.39-52.63,4.14-65.27-46.47-11.93-110.66-2.48-157.85,5.85-66.39,11.71-130.46,32.61-194.37,53.23-3.24,3.76,12.05,19.68,14.13,23.83l-23.51,21.69-15.08-17.96-7.84-13.24c-3.91-.64-56.48,22.87-64.39,26.73-17.51,8.56-14.64,9.61-5.95,27.39,13.99,28.6,38.37,56.55,65.52,73.29,13.52,8.34,49.65,25.01,64.86,23.91,14.74-1.06,69.49-22.89,86.73-29.45,53.84-20.46,91.29-29.74,117.94-85.09,14.18-29.46,12.72-77.11,41.68-92.98,34.68-19,76.93,9.62,73.99,48.08ZM583.33,640.35c2.66,2.22,41.77-23.18,45.28-28.25,8-11.57,15.94-49.79-5.07-52.48-23.14-2.97-20.65,27.21-25.13,43.01-3.68,12.99-8.65,25.86-15.09,37.72ZM69.54,810.27c-2.3,2.07,21.94,31.2,24.8,34.23,125.31,133.06,356.23,106.8,490.85,1.8,77.48-60.43,137.77-158.55,126.57-259.78l-18.59,19.7c-121.68,109.73-431.12,217.21-593.57,208.16-4.64-.26-28.92-5.12-30.05-4.11ZM90.25,779.16c-13.54-14.73-27.49-29.26-36.25-47.62-29.65,34.11,5.76,45.6,36.25,47.62Z"/>
  <path d="M265.81,112.58c67.53-10.71,79.65,90.72,15.91,98.75-65.47,8.25-77.17-89.03-15.91-98.75ZM269.92,145.63c-19.07,4.16-14.86,37.63,9.42,32.33,19.07-4.16,14.86-37.63-9.42-32.33Z"/>
  <path d="M149.79,228.6c67.94-10.78,79.29,90.8,15.91,98.75-65.51,8.22-77.14-89.04-15.91-98.75ZM153.91,261.65c-19.07,4.16-14.86,37.63,9.42,32.33,19.07-4.16,14.86-37.63-9.42-32.33Z"/>
  <path d="M324.36,327.54h-33.15c.6-29.81,14.73-59.37,31.46-83.52,3.19-4.61,19.72-26.39,23.44-26.36,5.48,2.84,22.97,18.18,21.54,23.5-.63,2.34-13.24,15.38-16.01,19.4-13.73,19.99-26.75,41.92-27.28,66.98Z"/>
  <rect x="42.6" y="327.54" width="33.15" height="33.15"/>
  <rect x="224.91" y="344.11" width="33.15" height="33.15"/>
  <rect x="208.34" y="493.28" width="33.15" height="33.15"/>
  <rect x="307.78" y="642.45" width="33.15" height="33.15"/>
  <path d="M158.62,692.17c4.49,23.44,24.65,38.06,41.28,53.09l-17.71,25.47c-27.99-16.22-53.99-45.01-56.71-78.56h33.15Z"/>
</svg>