<?xml version="1.0" encoding="UTF-8"?>
<svg id="Capa_1" xmlns="http://www.w3.org/2000/svg" version="1.1" viewBox="0 0 1080 1080">
  <!-- Generator: Adobe Illustrator 29.5.1, SVG Export Plug-In . SVG Version: 2.1.0 Build 141)  -->
  <path d="M895.88,516.58v171.88h-118.54v-266.72h-88.91v266.72h-100.76v-266.72h-94.83v266.72h-100.76v-266.72h-88.91v266.72h-118.54v-171.88c0-2.31-29.57-12.18-40.97-21.27C-14.64,369.12,85.96,112.04,288.59,125.2c20.02,1.3,66.54,19.41,75.61,17.11,7.02-1.78,24.49-22.98,35.41-30.13,88.79-58.11,179.23-63.54,270.55-7.05,12.17,7.53,41.38,35.97,46.14,37.18,9.08,2.3,55.58-15.81,75.61-17.11,227.57-14.78,310.79,298.4,103.96,391.38Z"/>
  <rect x="184.63" y="777.37" width="711.25" height="237.08"/>
</svg>