<?xml version="1.0" encoding="UTF-8"?>
<svg id="Capa_1" xmlns="http://www.w3.org/2000/svg" version="1.1" viewBox="0 0 1080 1080">
  <!-- Generator: Adobe Illustrator 29.5.1, SVG Export Plug-In . SVG Version: 2.1.0 Build 141)  -->
  <path d="M69.5,759.66h31.38v219.66h643.29V100.68H100.88v627.6h-31.38V80.09c0-4.49,11.23-12.65,16.58-10.88l679.77.97,8.83,8.83.97,915.12c.3,6.59-2.67,12.1-8.43,15.1l-681.13,1.57c-5.35,1.77-16.58-6.39-16.58-10.88v-240.25Z"/>
  <path d="M582.81,199.28l4.51,12.14c-10.33,81.92-24.65,156.41-86.32,215.83-10.5,10.12-50.34,42.56-62.11,47.71-6.15,2.69-9.3,3.47-15.87.78-7.61-3.11-40.35-28.99-48.49-35.83-42.87-36.03-73.51-84.36-86.38-139.17-5.25-22.38-13.9-65.39-14.73-87.4-.28-7.54,1.36-13.49,8.47-16.97l147.54-64.46,153.38,67.37ZM427.93,165.72c-35.51,18.06-74.54,31.32-110.04,49-3.88,1.93-10.76,3.82-11.13,8.52,5.38,26.48,7.19,53.74,14.34,79.87,16.13,58.95,58.07,107.56,109.9,138.5,52.62-33.04,92.39-79.64,108.65-140.47,6.85-25.65,8.59-52.2,14.17-78.08,0-4.03-4.14-4.91-7.01-6.42-35.42-18.59-76.95-31.22-112.5-50.4l-6.38-.53Z"/>
  <path d="M840.27,979.32l117-676.77,28.02,4.16-115.83,689.05c.28,5.68-7.41,14.94-12.52,14.94h-50.01v-31.38h33.34Z"/>
  <path d="M273.47,524.31v31.38h-75.51c-8.73,0-17.67,14.14-18.63,22.56-1.92,16.8-2.15,65.83.18,82.19,1.65,11.58,10.8,19.46,22.38,20.77,15.72,1.78,69.2,2.2,83.87-.46,14.04-2.55,21.26-17.49,19.1-30.92h31.38c2.25,26.94-12.57,52.34-38.79,60.25-15.75,4.76-80.97,4.35-99.45,2.48-25.61-2.59-46.84-22.55-49.82-48.24-2.4-20.7-2.4-71.05,0-91.76,2.37-20.39,24.22-48.26,45.88-48.26h79.43Z"/>
  <path d="M273.47,759.66v31.38h-75.51c-8.73,0-17.67,14.14-18.63,22.56-1.92,16.8-2.15,65.83.18,82.19,1.65,11.58,10.8,19.46,22.38,20.77,15.72,1.78,69.2,2.2,83.87-.46s21.26-17.49,19.1-30.92h31.38c2.25,26.94-12.57,52.34-38.79,60.25-15.75,4.76-80.97,4.35-99.45,2.48-25.61-2.59-46.84-22.55-49.82-48.24-2.4-20.7-2.4-71.05,0-91.76,2.37-20.39,24.22-48.26,45.88-48.26h79.43Z"/>
  <path d="M961.88,271.3l14.85-94.21-171.61-31.43,3.79-31.24,198.12,38.2,3.47,6.36-18.15,114.37c-3.93,5.63-23.65-3.78-30.47-2.04Z"/>
  <rect x="398.99" y="524.31" width="235.35" height="31.38"/>
  <rect x="398.99" y="759.66" width="235.35" height="31.38"/>
  <path d="M339.23,530.19l24.43,20.6-97.29,112.52c-6.33,3.7-12.28,2.98-18.3-.82-14.64-9.25-31.32-34.99-46.24-46.04l-.99-2.9c0-2.92,17.22-21.39,22.23-20.38l33.74,33.09,82.43-96.06Z"/>
  <path d="M339.23,765.54l24.43,20.6-97.29,112.52c-6.33,3.7-12.28,2.98-18.3-.82-14.64-9.25-31.32-34.99-46.24-46.04l-.99-2.9c0-2.92,17.22-21.39,22.23-20.38l33.74,33.09,82.43-96.06Z"/>
  <rect x="508.82" y="602.76" width="125.52" height="31.38"/>
  <rect x="508.82" y="838.11" width="125.52" height="31.38"/>
  <rect x="147.95" y="132.06" width="94.14" height="31.38"/>
  <rect x="398.99" y="602.76" width="78.45" height="31.38"/>
  <rect x="398.99" y="838.11" width="78.45" height="31.38"/>
  <rect x="147.95" y="194.82" width="62.76" height="31.38"/>
  <rect x="618.65" y="132.06" width="31.38" height="31.38"/>
  <rect x="681.41" y="132.06" width="31.38" height="31.38"/>
  <path d="M496.34,232.23c1.83-.32,20.24,17.2,21.42,19.49.78,1.51,1.31,2.41,0,3.89-30.48,26.19-57.76,63.13-88.33,88.32-5.69,4.69-9.36,8.81-17.52,7.77-11.69-1.49-44.19-43.31-56.04-51.94,5.34-3.75,18.11-21.96,24.09-20.38,6.11,1.61,30.37,33.89,35.43,32.99l80.95-80.13Z"/>
</svg>