<?xml version="1.0" encoding="UTF-8"?>
<svg id="Capa_1" xmlns="http://www.w3.org/2000/svg" version="1.1" viewBox="0 0 1080 1080">
  <!-- Generator: Adobe Illustrator 29.5.1, SVG Export Plug-In . SVG Version: 2.1.0 Build 141)  -->
  <path d="M401.63,729.69h271.45c6.46,0,10.36,10.96,10.87,16.57,7.22,79.69-5.63,170.17-.05,251.01-.15,5.74-3.33,10.56-8.38,13.18l-577.79.6-8.82-8.82-.97-506.84c-.3-6.55,2.64-12.07,8.43-15.09l288.69-1.57c5.34-1.77,16.57,6.39,16.57,10.87v240.09ZM182.12,510.17h-62.72v219.51h250.87v-219.51h-62.72v83.3c0,3.1-8.67,11.17-12.86,10.66-30.91-1.93-65.58,2.97-96.01.21-5.61-.51-16.57-4.41-16.57-10.87v-83.3ZM276.19,510.17h-62.72v62.72h62.72v-62.72ZM182.12,761.05h-62.72v219.51h250.87v-219.51h-62.72v83.3c0,3.1-8.67,11.17-12.86,10.66-30.91-1.93-65.58,2.97-96.01.21-5.61-.51-16.57-4.41-16.57-10.87v-83.3ZM276.19,761.05h-62.72v62.72h62.72v-62.72ZM464.35,761.05h-62.72v219.51h250.87v-219.51h-62.72v83.3c0,3.1-8.67,11.17-12.86,10.66-30.91-1.93-65.58,2.97-96.01.21-5.61-.51-16.57-4.41-16.57-10.87v-83.3ZM558.43,761.05h-62.72v62.72h62.72v-62.72Z"/>
  <path d="M656.42,133.86h161.7c21.92,0,53.9,31.99,53.9,53.9v275.37h-31.36V189.72c0-7.23-16.78-24.5-24.5-24.5h-100.94v31.36h83.3c2.3,0,10.78,8.47,10.78,10.78v271.45h-31.36v-250.87h-376.31v219.51h-31.36v-240.09c0-2.31,8.48-10.78,10.78-10.78h83.3v-31.36h-100.94c-7.86,0-24.5,16.72-24.5,24.5v257.73h-31.36V185.8c0-19.35,32.58-51.94,51.94-51.94h163.66c-2.43-18.8-26.94-59.93,4.81-62.81,30.72-2.79,92.95-2.8,123.66,0,31.73,2.89,7.25,43.94,4.81,62.81ZM632.9,102.51h-86.24c2.37,13.78,16.85,45.29,8.78,56.8-1.04,1.48-6.7,5.92-7.8,5.92h-51.94v31.36h188.15v-31.36h-51.94c-1.09,0-6.76-4.44-7.8-5.92-8.08-11.51,6.41-43.02,8.78-56.8Z"/>
  <path d="M879.86,592.49l-342.2,101.77c-8.2.96-70.89-9.3-79.22-12.56-17.84-6.99-8.7-22.87.96-32.42,15.96-15.77,33.59-30.81,50.91-45.13l427.38-127.27c38.58-6.36,66.78,34.17,48.87,68.47-13.76,26.35-52.13,28.35-77.32,37.37,3.64,11.81,1.8,25.71,1.89,38.28.07,9.07,5.31,16.69-2.49,25.78l-125.89,39.75c-4.38.48-2.12-.43-2.88-2.85-2.64-8.44-3.67-17.51-7.55-25.58l107.53-35.23v-30.38ZM909.26,549.38c14.9-5.21,60.67-7.77,49.92-33.29-7.24-17.18-38.94-1.1-51.61,2.19l1.7,31.1ZM875.92,527.82l-250.87,74.49,7.92,29.31,244.02-72.37-1.07-31.43ZM595.59,612.14l-71.86,21.11-24.1,23.9,33.73,5.5,68.21-20.17c5.16-3.6-6.31-24.24-5.98-30.35Z"/>
  <path d="M872.02,698.33v149.94c0,21.91-31.98,53.9-53.9,53.9h-102.9v-31.36h100.94c7.78,0,24.5-16.64,24.5-24.5v-147.98h31.36Z"/>
  <path d="M444.19,259.72c9.78-2.18,56.99-1.77,68.22-.46,9.07,1.05,13.66,5.69,14.7,14.7,1.15,9.94,1.41,62.25-.92,69.72-1.92,6.14-7.68,9.03-13.78,9.74-9.92,1.15-62.27,1.41-69.72-.92-6.14-1.92-9.03-7.68-9.74-13.78-1.63-13.99-1.62-50.77,0-64.76.78-6.75,4.2-12.67,11.24-14.24ZM495.71,290.66h-31.36v31.36h31.36v-31.36Z"/>
  <path d="M444.19,400.84c9.78-2.18,56.99-1.77,68.22-.46,9.07,1.05,13.66,5.69,14.7,14.7,1.15,9.94,1.41,62.25-.92,69.72-1.92,6.14-7.68,9.03-13.78,9.74-9.92,1.15-62.27,1.41-69.72-.92-6.14-1.92-9.03-7.68-9.74-13.78-1.63-13.99-1.62-50.77,0-64.76.78-6.75,4.2-12.67,11.24-14.24ZM495.71,431.78h-31.36v31.36h31.36v-31.36Z"/>
  <rect x="558.43" y="322.02" width="188.15" height="31.36"/>
  <rect x="558.43" y="463.13" width="188.15" height="31.36"/>
  <path d="M809.3,714.01v114.66c0,2.3-8.47,10.78-10.78,10.78h-83.3v-31.36h62.72v-94.08h31.36Z"/>
  <rect x="621.14" y="259.3" width="125.44" height="31.36"/>
  <rect x="621.14" y="400.42" width="125.44" height="31.36"/>
  <rect x="558.43" y="259.3" width="31.36" height="31.36"/>
  <rect x="558.43" y="400.42" width="31.36" height="31.36"/>
  <rect x="307.55" y="666.97" width="31.36" height="31.36"/>
  <rect x="307.55" y="917.84" width="31.36" height="31.36"/>
  <rect x="589.78" y="917.84" width="31.36" height="31.36"/>
</svg>