<?xml version="1.0" encoding="UTF-8"?>
<svg id="Capa_1" xmlns="http://www.w3.org/2000/svg" version="1.1" viewBox="0 0 1080 1080">
  <!-- Generator: Adobe Illustrator 29.5.1, SVG Export Plug-In . SVG Version: 2.1.0 Build 141)  -->
  <path d="M203.99,483.55v149.22c0,18.03,36.17,25.94,49.34,12.7,22.36-22.48-17.86-107.31,37.56-105.26,31.68,1.18,20.34,29.54,30.92,46.56,10.17,16.38,51.12,8.85,51.12-10.31v-92.91h577.17c14.67,0,38.06,28.09,41.03,43.61,13.29,69.33-61.08,74.74-111.42,69.01v92.91c0,34.37-39.65,112.62-62.06,140.65-10.43,13.04-42.89,37.65-47.64,48.09-11.81,25.95,9.08,66.66-17.32,95.3-36.08,39.14-103.64,8.35-98.25-44.76l-334.91-.07c-.99,49.53-58.7,84.11-98.31,47.65-29.08-26.77-9.87-65.73-18.37-94.25-3.34-11.22-39-38.95-49.4-51.96-62.03-77.58-73.66-196.22-62.2-292.82,7.43-62.61,64.41-54.27,112.75-53.36Z"/>
  <path d="M660.1,427.18c-4.02-2.97,51.7-74.79,53.9-84.2,2.56-10.96-4.68-22.97-3.16-36.25,1.44-12.57,113.23-186.46,127.05-200.03,43.74-42.96,114.33-2.16,93.78,60.04-4.41,13.34-111.48,175.88-122.78,186.88-16.32,15.88-34.39,12.3-47.11,20.46-11.99,7.69-25.22,47.93-37.85,52.24l-63.82.87Z"/>
  <path d="M558.2,426.68l-55.78.53c-6.39-6.39,15.91-58.33,14.5-70.44-1.92-16.51-17.9-21.53-13.88-61.28,2.58-25.54,35.9-158.68,46.86-178.35,28.74-51.59,108.69-28.4,104.21,36.21-1.63,23.53-44.24,183.72-55.78,198.03-7.88,9.77-21.37,13.07-27.26,23.42-5.63,9.9-10.71,50.02-12.87,51.87Z"/>
</svg>