<?xml version="1.0" encoding="UTF-8"?>
<svg id="Capa_1" xmlns="http://www.w3.org/2000/svg" version="1.1" viewBox="0 0 1080 1080">
  <!-- Generator: Adobe Illustrator 29.5.1, SVG Export Plug-In . SVG Version: 2.1.0 Build 141)  -->
  <g>
    <path d="M1070.42,288.71c-.29,7.54.4,15.26,0,22.79-3.8,70.71-11.3,160.38-20.98,230.8-1.54,11.24-4.31,35.91-19.37,36.3-5.16.13-11.93-3.75-14.03-8.59-3.79-8.76,3.53-40.31,4.63-52.33,6.75-73.88,11.54-147.94,18.77-221.78-1.79-16.15-19.51-16.65-32.32-15.56-18.97,1.62-31.56,13.08-37.78,30.59-8.4,57.87-6.94,120.04-15.22,177.5-3.29,22.85-13.57,43.82-35.62,53.48-37.98,16.64-123.19-1.12-167.73,6.32-17.1,2.86-34.21,20.87-36.57,38.02-1.57,11.47-1.02,28.11,13.18,29.98,69.73-4.7,146.83,5.9,215.67-.03,15.72-1.35,54.17-25.86,56.89,1.16,1.78,17.66-22.23,19.71-33.21,26.89,13.64,51.73,33.72,102.05,47.13,153.78,2.88,11.1,7.92,23.94-6.18,29.98-26.88,11.51-28.34-56.5-40.13-68.61l-210.83-.41c-3.19.88-14.73,54.36-20.18,63.06-9.58,15.28-31.77,5.48-28.28-11.57l49.28-163.26h-38.33c-1.39,0-13.24-5.9-15.41-7.39-38-26-20.61-88.33,13.72-110.34,41.02-26.3,127.87-6.24,177.62-13.01,17.66-2.4,25.74-15.56,28.14-31.95,8.17-55.61,5.03-118.8,14.77-173.8,6.12-34.56,32.09-58.38,67.12-61.35,31.83-2.69,55.81,7.4,65.23,39.34ZM765.84,728.02h192.69l-24.06-80.95-143.9,1.04-24.74,79.91Z"/>
    <path d="M787.59,421.33c8.77-2.68-3.48-22.02-7.27-25.88-6.23-6.36-15.57-9.1-23.99-11.24l-327.24-.13c-21.82-2.51-18.75-30.35,2.07-31.19,104.52,5.24,215.47-6.76,319.23-.04,20.39,1.32,38.34,6.83,52.8,21.8,16.77,17.36,28.3,50.89,7.22,69.51-1.44,1.27-13.7,8.26-14.53,8.26h-198.91l-3.11,3.11v280.79c35.83-3.56,61.99,18.93,67.44,53.77,3.48,22.27-5.76,37.51-29.02,39.57-60.71,5.36-130.36-3.42-191.86-1.01-53.6-22.47-2.93-104.57,45.7-92.33v-280.79l-3.11-3.11h-198.91c-1.66,0-14.26-8.12-16.45-10.49-27.48-29.72,7.28-77.09,40.19-85.96,15.4-4.15,69.5-11.04,63.96,16.18-4.07,20-45.19,6.68-64.97,18.04-7.82,4.49-26.01,31.15-14.44,31.15h495.2ZM562.78,452.41h-45.58v283.9h45.58v-283.9ZM631.16,798.48c-2.16-14.02-7.69-26.46-22.23-30.61-42.23,2.24-90.74-4.6-132.24-.58-18.52,1.8-25.08,14.17-27.87,31.19h182.33Z"/>
    <path d="M322.43,647.2l49.28,163.26c3.48,17.04-18.71,26.85-28.28,11.57-5.45-8.7-16.99-62.18-20.18-63.06l-210.83.41c-11.96,12.39-13.44,82.66-41.45,67.82-12.69-6.73-7.67-18.37-4.86-29.18,13.41-51.73,33.49-102.06,47.13-153.78-48.63-17.56-76.09-52.66-82.93-103.78-10.6-79.27-10.71-162.82-20.86-242.49.52-52.57,67.48-60.81,102.32-35.84,24.71,17.7,29.12,38.38,32.46,67,5.95,51.04,5.15,106.91,12.67,157.26,2.49,16.66,12.49,28.42,29.82,30.27,45.95,4.93,132.92-10.86,170.82,9.45,37.65,20.18,58.4,86.52,18.64,113.71-2.17,1.48-14.02,7.39-15.41,7.39h-38.33ZM352.77,560.91c-6.26-6.26-18.32-12.18-27.23-13.18-44.45-4.99-97.68,4.45-142.72-.25-34.04-3.55-52.3-26.53-56.98-59.06-8.36-58.05-6.59-120.68-15.72-179.07-8.59-32.58-70.62-44.06-69.61-7.14,11.8,77.44,9.35,161.18,21.09,238.02,6.32,41.32,31.46,69.14,73.33,75.86l219.56-.03c20.73-9.08,11.15-42.28-1.72-55.16ZM314.15,728.02l-24.74-79.91-143.9-1.04-24.06,80.95h192.69Z"/>
  </g>
  <g>
    <path d="M-920.36-517.79c5.23-19.36,17.25-33.3,28.65-49.13-8.42-37.61-33.62-104.68,18.87-119.85,6.67-1.93,15.35,1.51,18.36-6.5l.96-129.56c7.01-34.98,41.01-56.01,75.46-43.4,49.02,17.95,33.59,72.82,35.79,113.38,1.42,26.29,7.09,54.2,13.53,79.66l74.79-33.06c-8.87-37.3-5.64-72.16,11.49-106.47,2.69-5.39,20.07-33.21,23.8-34.35,5.15-1.58,20.93,16.23,23.63,21.63-22.83,29.85-39.22,69.36-25.94,106.73,79.04-27.95,160.97-53.71,244.7-63.99,49.44-6.08,104.26-9.81,150.91,10.09,5.76-1.13.74-19.99,1-25.94.83-19.25,11.49-34.89,26.34-46.22,87.34-33.55,173.51-86.12,260.32-118.81,33.19-12.5,62.07-2.28,74.31,32.1,18.3,51.37-28.26,66.16-63.87,84-76.36,38.25-154.31,74.76-231.91,109.91-13.49,1.98-26.12-2.74-38.14-8.1,67.02,216.32-119.9,404.29-321.07,442.4-161.88,30.66-345.43-29.77-402-195.86v-18.65ZM-108.22-797.48l205.78-99.79c20.1-10.93,3.88-45.24-17.32-38.05l-207.11,94.36,14.89,25.48,3.76,18ZM-640.69-509.48c-92.38-39.15-129.46-147.66-134.63-241.41-1-18.13,3.49-57.13-.94-71.57-6.28-20.44-40.79-18.78-44.52,5.43-5.49,35.64,3.31,84.69-.05,122.18-1.65,18.45-12.32,32.55-30.01,38.36-7.71,2.53-20.44.28-21.48,9.68,2.44,66.42,33.28,150.83,108.96,159.51,26.29,3.02,88.52-10.22,115.27-18.24,2.35-.71,7.7-.77,7.41-3.94ZM-168.31-770.57c62.08-11.62,1.06-86.19-22.82-27.97,7.05.6,8.67-5.68,17.59-5.3,14.42.61,20.57,17.35,11.53,28.21-2.09,2.51-6.52,1.83-6.29,5.06ZM-259.45-683.53c23.53-21.57,53.39-52.63,4.14-65.27-46.47-11.93-110.66-2.48-157.85,5.85-66.39,11.71-130.46,32.61-194.37,53.23-3.24,3.76,12.05,19.68,14.13,23.83l-23.51,21.69-15.08-17.96-7.84-13.24c-3.91-.64-56.48,22.87-64.39,26.73-17.51,8.56-14.64,9.61-5.95,27.39,13.99,28.6,38.37,56.55,65.52,73.29,13.52,8.34,49.65,25.01,64.86,23.91,14.74-1.06,69.49-22.89,86.73-29.45,53.84-20.46,91.29-29.74,117.94-85.09,14.18-29.46,12.72-77.11,41.68-92.98,34.68-19,76.93,9.62,73.99,48.08ZM-346.49-623.47c2.66,2.22,41.77-23.18,45.28-28.25,8-11.57,15.94-49.79-5.07-52.48-23.14-2.97-20.65,27.21-25.13,43.01-3.68,12.99-8.65,25.86-15.09,37.72ZM-860.27-453.56c-2.3,2.07,21.94,31.2,24.8,34.23,125.31,133.06,356.23,106.8,490.85,1.8,77.48-60.43,137.77-158.55,126.57-259.78l-18.59,19.7c-121.68,109.73-431.12,217.21-593.57,208.16-4.64-.26-28.92-5.12-30.05-4.11ZM-839.57-484.67c-13.54-14.73-27.49-29.26-36.25-47.62-29.65,34.11,5.76,45.6,36.25,47.62Z"/>
    <path d="M-664.01-1151.24c67.53-10.71,79.65,90.72,15.91,98.75-65.47,8.25-77.17-89.03-15.91-98.75ZM-659.89-1118.19c-19.07,4.16-14.86,37.63,9.42,32.33,19.07-4.16,14.86-37.63-9.42-32.33Z"/>
    <path d="M-780.03-1035.22c67.94-10.78,79.29,90.8,15.91,98.75-65.51,8.22-77.14-89.04-15.91-98.75ZM-775.91-1002.18c-19.07,4.16-14.86,37.63,9.42,32.33,19.07-4.16,14.86-37.63-9.42-32.33Z"/>
    <path d="M-605.46-936.29h-33.15c.6-29.81,14.73-59.37,31.46-83.52,3.19-4.61,19.72-26.39,23.44-26.36,5.48,2.84,22.97,18.18,21.54,23.5-.63,2.34-13.24,15.38-16.01,19.4-13.73,19.99-26.75,41.92-27.28,66.98Z"/>
    <rect x="-887.22" y="-936.29" width="33.15" height="33.15"/>
    <rect x="-704.9" y="-919.71" width="33.15" height="33.15"/>
    <rect x="-721.48" y="-770.55" width="33.15" height="33.15"/>
    <rect x="-622.03" y="-621.38" width="33.15" height="33.15"/>
    <path d="M-771.2-571.66c4.49,23.44,24.65,38.06,41.28,53.09l-17.71,25.47c-27.99-16.22-53.99-45.01-56.71-78.56h33.15Z"/>
  </g>
  <g>
    <path d="M-2165.75,478.96h31.38v219.66h643.29V-180.02h-643.29V447.58h-31.38V-200.61c0-4.49,11.23-12.65,16.58-10.88l679.77.97,8.83,8.83.97,915.12c.3,6.59-2.67,12.1-8.43,15.1l-681.13,1.57c-5.35,1.77-16.58-6.39-16.58-10.88v-240.25Z"/>
    <path d="M-1652.44-81.42l4.51,12.14c-10.33,81.92-24.65,156.41-86.32,215.83-10.5,10.12-50.34,42.56-62.11,47.71-6.15,2.69-9.3,3.47-15.87.78-7.61-3.11-40.35-28.99-48.49-35.83-42.87-36.03-73.51-84.36-86.38-139.17-5.25-22.38-13.9-65.39-14.73-87.4-.28-7.54,1.36-13.49,8.47-16.97l147.54-64.46,153.38,67.37ZM-1807.32-114.98c-35.51,18.06-74.54,31.32-110.04,49-3.88,1.93-10.76,3.82-11.13,8.52,5.38,26.48,7.19,53.74,14.34,79.87,16.13,58.95,58.07,107.56,109.9,138.5,52.62-33.04,92.39-79.64,108.65-140.47,6.85-25.65,8.59-52.2,14.17-78.08,0-4.03-4.14-4.91-7.01-6.42-35.42-18.59-76.95-31.22-112.5-50.4l-6.38-.53Z"/>
    <path d="M-1394.98,698.62L-1277.98,21.85l28.02,4.16-115.83,689.05c.28,5.68-7.41,14.94-12.52,14.94h-50.01v-31.38h33.34Z"/>
    <path d="M-1961.78,243.61v31.38h-75.51c-8.73,0-17.67,14.14-18.63,22.56-1.92,16.8-2.15,65.83.18,82.19,1.65,11.58,10.8,19.46,22.38,20.77,15.72,1.78,69.2,2.2,83.87-.46,14.04-2.55,21.26-17.49,19.1-30.92h31.38c2.25,26.94-12.57,52.34-38.79,60.25-15.75,4.76-80.97,4.35-99.45,2.48-25.61-2.59-46.84-22.55-49.82-48.24-2.4-20.7-2.4-71.05,0-91.76,2.37-20.39,24.22-48.26,45.88-48.26h79.43Z"/>
    <path d="M-1961.78,478.96v31.38h-75.51c-8.73,0-17.67,14.14-18.63,22.56-1.92,16.8-2.15,65.83.18,82.19,1.65,11.58,10.8,19.46,22.38,20.77,15.72,1.78,69.2,2.2,83.87-.46s21.26-17.49,19.1-30.92h31.38c2.25,26.94-12.57,52.34-38.79,60.25-15.75,4.76-80.97,4.35-99.45,2.48-25.61-2.59-46.84-22.55-49.82-48.24-2.4-20.7-2.4-71.05,0-91.76,2.37-20.39,24.22-48.26,45.88-48.26h79.43Z"/>
    <path d="M-1273.38-9.4l14.85-94.21-171.61-31.43,3.79-31.24,198.12,38.2,3.47,6.36-18.15,114.37c-3.93,5.63-23.65-3.78-30.47-2.04Z"/>
    <rect x="-1836.26" y="243.61" width="235.35" height="31.38"/>
    <rect x="-1836.26" y="478.96" width="235.35" height="31.38"/>
    <path d="M-1896.02,249.49l24.43,20.6-97.29,112.52c-6.33,3.7-12.28,2.98-18.3-.82-14.64-9.25-31.32-34.99-46.24-46.04l-.99-2.9c0-2.92,17.22-21.39,22.23-20.38l33.74,33.09,82.43-96.06Z"/>
    <path d="M-1896.02,484.84l24.43,20.6-97.29,112.52c-6.33,3.7-12.28,2.98-18.3-.82-14.64-9.25-31.32-34.99-46.24-46.04l-.99-2.9c0-2.92,17.22-21.39,22.23-20.38l33.74,33.09,82.43-96.06Z"/>
    <rect x="-1726.43" y="322.06" width="125.52" height="31.38"/>
    <rect x="-1726.43" y="557.41" width="125.52" height="31.38"/>
    <rect x="-2087.3" y="-148.64" width="94.14" height="31.38"/>
    <rect x="-1836.26" y="322.06" width="78.45" height="31.38"/>
    <rect x="-1836.26" y="557.41" width="78.45" height="31.38"/>
    <rect x="-2087.3" y="-85.88" width="62.76" height="31.38"/>
    <rect x="-1616.6" y="-148.64" width="31.38" height="31.38"/>
    <rect x="-1553.84" y="-148.64" width="31.38" height="31.38"/>
    <path d="M-1738.91-48.47c1.83-.32,20.24,17.2,21.42,19.49.78,1.51,1.31,2.41,0,3.89-30.48,26.19-57.76,63.13-88.33,88.32-5.69,4.69-9.36,8.81-17.52,7.77-11.69-1.49-44.19-43.31-56.04-51.94,5.34-3.75,18.11-21.96,24.09-20.38,6.11,1.61,30.37,33.89,35.43,32.99l80.95-80.13Z"/>
  </g>
  <g>
    <path d="M-640.69,729.69h271.45c6.46,0,10.36,10.96,10.87,16.57,7.22,79.69-5.63,170.17-.05,251.01-.15,5.74-3.33,10.56-8.38,13.18l-577.79.6-8.82-8.82-.97-506.84c-.3-6.55,2.64-12.07,8.43-15.09l288.69-1.57c5.34-1.77,16.57,6.39,16.57,10.87v240.09ZM-860.2,510.17h-62.72v219.51h250.87v-219.51h-62.72v83.3c0,3.1-8.67,11.17-12.86,10.66-30.91-1.93-65.58,2.97-96.01.21-5.61-.51-16.57-4.41-16.57-10.87v-83.3ZM-766.12,510.17h-62.72v62.72h62.72v-62.72ZM-860.2,761.05h-62.72v219.51h250.87v-219.51h-62.72v83.3c0,3.1-8.67,11.17-12.86,10.66-30.91-1.93-65.58,2.97-96.01.21-5.61-.51-16.57-4.41-16.57-10.87v-83.3ZM-766.12,761.05h-62.72v62.72h62.72v-62.72ZM-577.97,761.05h-62.72v219.51h250.87v-219.51h-62.72v83.3c0,3.1-8.67,11.17-12.86,10.66-30.91-1.93-65.58,2.97-96.01.21-5.61-.51-16.57-4.41-16.57-10.87v-83.3ZM-483.89,761.05h-62.72v62.72h62.72v-62.72Z"/>
    <path d="M-385.89,133.86h161.7c21.92,0,53.9,31.99,53.9,53.9v275.37h-31.36V189.72c0-7.23-16.78-24.5-24.5-24.5h-100.94v31.36h83.3c2.3,0,10.78,8.47,10.78,10.78v271.45h-31.36v-250.87h-376.31v219.51h-31.36v-240.09c0-2.31,8.48-10.78,10.78-10.78h83.3v-31.36h-100.94c-7.86,0-24.5,16.72-24.5,24.5v257.73h-31.36V185.8c0-19.35,32.58-51.94,51.94-51.94h163.66c-2.43-18.8-26.94-59.93,4.81-62.81,30.72-2.79,92.95-2.8,123.66,0,31.73,2.89,7.25,43.94,4.81,62.81ZM-409.41,102.51h-86.24c2.37,13.78,16.85,45.29,8.78,56.8-1.04,1.48-6.7,5.92-7.8,5.92h-51.94v31.36h188.15v-31.36h-51.94c-1.09,0-6.76-4.44-7.8-5.92-8.08-11.51,6.41-43.02,8.78-56.8Z"/>
    <path d="M-162.46,592.49l-342.2,101.77c-8.2.96-70.89-9.3-79.22-12.56-17.84-6.99-8.7-22.87.96-32.42,15.96-15.77,33.59-30.81,50.91-45.13l427.38-127.27c38.58-6.36,66.78,34.17,48.87,68.47-13.76,26.35-52.13,28.35-77.32,37.37,3.64,11.81,1.8,25.71,1.89,38.28.07,9.07,5.31,16.69-2.49,25.78l-125.89,39.75c-4.38.48-2.12-.43-2.88-2.85-2.64-8.44-3.67-17.51-7.55-25.58l107.53-35.23v-30.38ZM-133.05,549.38c14.9-5.21,60.67-7.77,49.92-33.29-7.24-17.18-38.94-1.1-51.61,2.19l1.7,31.1ZM-166.39,527.82l-250.87,74.49,7.92,29.31,244.02-72.37-1.07-31.43ZM-446.73,612.14l-71.86,21.11-24.1,23.9,33.73,5.5,68.21-20.17c5.16-3.6-6.31-24.24-5.98-30.35Z"/>
    <path d="M-170.3,698.33v149.94c0,21.91-31.98,53.9-53.9,53.9h-102.9v-31.36h100.94c7.78,0,24.5-16.64,24.5-24.5v-147.98h31.36Z"/>
    <path d="M-598.13,259.72c9.78-2.18,56.99-1.77,68.22-.46,9.07,1.05,13.66,5.69,14.7,14.7,1.15,9.94,1.41,62.25-.92,69.72-1.92,6.14-7.68,9.03-13.78,9.74-9.92,1.15-62.27,1.41-69.72-.92-6.14-1.92-9.03-7.68-9.74-13.78-1.63-13.99-1.62-50.77,0-64.76.78-6.75,4.2-12.67,11.24-14.24ZM-546.61,290.66h-31.36v31.36h31.36v-31.36Z"/>
    <path d="M-598.13,400.84c9.78-2.18,56.99-1.77,68.22-.46,9.07,1.05,13.66,5.69,14.7,14.7,1.15,9.94,1.41,62.25-.92,69.72-1.92,6.14-7.68,9.03-13.78,9.74-9.92,1.15-62.27,1.41-69.72-.92-6.14-1.92-9.03-7.68-9.74-13.78-1.63-13.99-1.62-50.77,0-64.76.78-6.75,4.2-12.67,11.24-14.24ZM-546.61,431.78h-31.36v31.36h31.36v-31.36Z"/>
    <rect x="-483.89" y="322.02" width="188.15" height="31.36"/>
    <rect x="-483.89" y="463.13" width="188.15" height="31.36"/>
    <path d="M-233.02,714.01v114.66c0,2.3-8.47,10.78-10.78,10.78h-83.3v-31.36h62.72v-94.08h31.36Z"/>
    <rect x="-421.17" y="259.3" width="125.44" height="31.36"/>
    <rect x="-421.17" y="400.42" width="125.44" height="31.36"/>
    <rect x="-483.89" y="259.3" width="31.36" height="31.36"/>
    <rect x="-483.89" y="400.42" width="31.36" height="31.36"/>
    <rect x="-734.76" y="666.97" width="31.36" height="31.36"/>
    <rect x="-734.76" y="917.84" width="31.36" height="31.36"/>
    <rect x="-452.53" y="917.84" width="31.36" height="31.36"/>
  </g>
</svg>